# Blender v2.82 (sub 7) OBJ File: 'test spline.blend'
# www.blender.org
mtllib test spline 3.mtl
o model
v 0.050000 -0.000000 0.050000
v 0.050000 0.100000 0.050000
v -0.050000 0.100000 0.050000
v -0.050000 -0.000000 0.050000
v 0.050000 0.000000 -0.050000
v 0.050000 0.100000 -0.050000
v -0.050000 0.000000 -0.050000
v -0.050000 0.100000 -0.050000
vt 1.000000 0.000000
vt 1.000000 1.000000
vt 0.000000 1.000000
vt 0.000000 0.000000
vt 1.000000 0.000000
vt 1.000000 1.000000
vt 0.000000 1.000000
vt 0.000000 0.000000
vt 1.000000 0.000000
vt 1.000000 1.000000
vt 0.000000 1.000000
vt 0.000000 0.000000
vt 1.000000 0.000000
vt 1.000000 1.000000
vt 0.000000 1.000000
vt 0.000000 0.000000
vt 1.000000 0.000000
vt 0.000000 0.000000
vt 1.000000 1.000000
vt 0.000000 1.000000
vn 0.0000 -0.0000 1.0000
vn 1.0000 -0.0000 0.0000
vn 0.0000 0.0000 -1.0000
vn -1.0000 0.0000 0.0000
vn 0.0000 1.0000 0.0000
vn 0.0000 -1.0000 -0.0000
usemtl default
s 1
f 1/1/1 2/2/1 3/3/1 4/4/1
f 5/5/2 6/6/2 2/7/2 1/8/2
f 7/9/3 8/10/3 6/11/3 5/12/3
f 4/13/4 3/14/4 8/15/4 7/16/4
f 2/17/5 6/6/5 8/15/5 3/18/5
f 5/5/6 1/19/6 4/20/6 7/16/6
o NurbsCurve_NurbsCurve.001
v 0.505026 0.000000 -0.832352
v 0.239583 0.000000 -0.780498
v 0.018901 0.000000 -0.724528
v -0.160618 0.000000 -0.665018
v -0.302576 0.000000 -0.602545
v -0.410574 0.000000 -0.537686
v -0.488213 0.000000 -0.471016
v -0.539093 0.000000 -0.403112
v -0.566816 0.000000 -0.334550
v -0.574981 0.000000 -0.265907
v -0.567190 0.000000 -0.197758
v -0.547044 0.000000 -0.130680
v -0.518143 0.000000 -0.065249
v -0.484088 0.000000 -0.002042
v -0.448480 0.000000 0.058365
v -0.414695 0.000000 0.115434
v -0.383783 0.000000 0.169020
v -0.355425 0.000000 0.219209
v -0.329283 0.000000 0.266092
v -0.305018 0.000000 0.309758
v -0.282293 0.000000 0.350296
v -0.260769 0.000000 0.387797
v -0.240110 0.000000 0.422350
v -0.219976 0.000000 0.454045
v -0.200031 0.000000 0.482971
v -0.179936 0.000000 0.509219
v -0.159353 0.000000 0.532878
v -0.137944 0.000000 0.554038
v -0.115371 0.000000 0.572789
v -0.091300 0.000000 0.589214
v -0.065514 0.000000 0.603133
v -0.037951 0.000000 0.614029
v -0.008560 0.000000 0.621360
v 0.022713 0.000000 0.624585
v 0.055918 0.000000 0.623163
v 0.091108 0.000000 0.616552
v 0.128334 0.000000 0.604212
v 0.167648 0.000000 0.585600
v 0.209102 0.000000 0.560177
v 0.252749 0.000000 0.527400
v 0.298639 0.000000 0.486728
v 0.346825 0.000000 0.437621
v 0.397359 0.000000 0.379536
v 0.450292 0.000000 0.311933
v 0.505515 0.000000 0.235021
v 0.562438 0.000000 0.151233
v 0.620381 0.000000 0.063414
v 0.678667 0.000000 -0.025591
v 0.736617 0.000000 -0.112937
v 0.793552 0.000000 -0.195779
v 0.848793 0.000000 -0.271272
v 0.901662 0.000000 -0.336571
v 0.951480 0.000000 -0.388830
v 0.997569 0.000000 -0.425206
v 1.039250 0.000000 -0.442852
v 1.075843 0.000000 -0.438924
v 1.106672 0.000000 -0.410577
v 1.131056 0.000000 -0.354965
v 1.148345 0.000000 -0.269842
v 1.158095 0.000000 -0.157376
v 1.159952 0.000000 -0.021715
v 1.153566 0.000000 0.132983
v 1.138583 0.000000 0.302562
v 1.114653 0.000000 0.482862
v 1.081423 0.000000 0.669728
v 1.038541 0.000000 0.859001
v 0.985656 0.000000 1.046524
v 0.922415 0.000000 1.228140
v 0.848466 0.000000 1.399691
v 0.763458 0.000000 1.557019
v 0.667038 0.000000 1.695968
v 0.558855 0.000000 1.812379
v 0.438612 0.000000 1.902235
v 0.307287 0.000000 1.964689
v 0.167132 0.000000 2.002074
v 0.020456 0.000000 2.016858
v -0.130433 0.000000 2.011511
v -0.283228 0.000000 1.988503
v -0.435620 0.000000 1.950302
v -0.585301 0.000000 1.899377
v -0.729964 0.000000 1.838199
v -0.867300 0.000000 1.769235
v -0.995002 0.000000 1.694956
v -1.110762 0.000000 1.617831
v -1.212270 0.000000 1.540328
v -1.297221 0.000000 1.464918
v -1.363311 0.000000 1.394064
v -1.409489 0.000000 1.329353
v -1.437497 0.000000 1.270407
v -1.449453 0.000000 1.216581
v -1.447477 0.000000 1.167232
v -1.433686 0.000000 1.121717
v -1.410199 0.000000 1.079391
v -1.379136 0.000000 1.039612
v -1.342614 0.000000 1.001736
v -1.302752 0.000000 0.965119
v -1.261670 0.000000 0.929118
v -1.221486 0.000000 0.893088
v -1.184318 0.000000 0.856387
v -1.152285 0.000000 0.818370
v -1.127507 0.000000 0.778395
v -1.111712 0.000000 0.735913
v -1.104528 0.000000 0.690890
v -1.104875 0.000000 0.643467
v -1.111671 0.000000 0.593784
v -1.123836 0.000000 0.541982
v -1.140288 0.000000 0.488201
v -1.159947 0.000000 0.432582
v -1.181731 0.000000 0.375264
v -1.204560 0.000000 0.316389
v -1.227353 0.000000 0.256096
v -1.249028 0.000000 0.194526
v -1.268504 0.000000 0.131819
v -1.284701 0.000000 0.068116
v -1.296538 0.000000 0.003557
v -1.302968 0.000000 -0.061709
v -1.303474 0.000000 -0.127398
v -1.297942 0.000000 -0.193126
v -1.286271 0.000000 -0.258505
v -1.268358 0.000000 -0.323146
v -1.244101 0.000000 -0.386661
v -1.213397 0.000000 -0.448662
v -1.176146 0.000000 -0.508761
v -1.132243 0.000000 -0.566570
v -1.081588 0.000000 -0.621701
v -1.024078 0.000000 -0.673766
v -0.959611 0.000000 -0.722377
v -0.888085 0.000000 -0.767145
v -0.809397 0.000000 -0.807682
v -0.723452 0.000000 -0.843603
v -0.630728 0.000000 -0.874656
v -0.532668 0.000000 -0.900819
v -0.430813 0.000000 -0.922091
v -0.326701 0.000000 -0.938473
v -0.221871 0.000000 -0.949965
v -0.117862 0.000000 -0.956567
v -0.016212 0.000000 -0.958278
v 0.081539 0.000000 -0.955100
v 0.173853 0.000000 -0.947031
v 0.259190 0.000000 -0.934072
v 0.336013 0.000000 -0.916222
v 0.402781 0.000000 -0.893483
v 0.457957 0.000000 -0.865853
v 0.500000 0.000000 -0.833333
l 9 10
l 10 11
l 11 12
l 12 13
l 13 14
l 14 15
l 15 16
l 16 17
l 17 18
l 18 19
l 19 20
l 20 21
l 21 22
l 22 23
l 23 24
l 24 25
l 25 26
l 26 27
l 27 28
l 28 29
l 29 30
l 30 31
l 31 32
l 32 33
l 33 34
l 34 35
l 35 36
l 36 37
l 37 38
l 38 39
l 39 40
l 40 41
l 41 42
l 42 43
l 43 44
l 44 45
l 45 46
l 46 47
l 47 48
l 48 49
l 49 50
l 50 51
l 51 52
l 52 53
l 53 54
l 54 55
l 55 56
l 56 57
l 57 58
l 58 59
l 59 60
l 60 61
l 61 62
l 62 63
l 63 64
l 64 65
l 65 66
l 66 67
l 67 68
l 68 69
l 69 70
l 70 71
l 71 72
l 72 73
l 73 74
l 74 75
l 75 76
l 76 77
l 77 78
l 78 79
l 79 80
l 80 81
l 81 82
l 82 83
l 83 84
l 84 85
l 85 86
l 86 87
l 87 88
l 88 89
l 89 90
l 90 91
l 91 92
l 92 93
l 93 94
l 94 95
l 95 96
l 96 97
l 97 98
l 98 99
l 99 100
l 100 101
l 101 102
l 102 103
l 103 104
l 104 105
l 105 106
l 106 107
l 107 108
l 108 109
l 109 110
l 110 111
l 111 112
l 112 113
l 113 114
l 114 115
l 115 116
l 116 117
l 117 118
l 118 119
l 119 120
l 120 121
l 121 122
l 122 123
l 123 124
l 124 125
l 125 126
l 126 127
l 127 128
l 128 129
l 129 130
l 130 131
l 131 132
l 132 133
l 133 134
l 134 135
l 135 136
l 136 137
l 137 138
l 138 139
l 139 140
l 140 141
l 141 142
l 142 143
l 143 144
l 144 145
l 145 146
l 146 147
l 147 148
l 148 149
l 149 150
l 150 151
l 151 152
o spline
v 0.000000 0.000000 0.000000
v 0.156281 0.000000 -0.187731
v 0.339580 0.000000 -0.343238
v 0.542459 0.000000 -0.463800
v 0.757478 0.000000 -0.546696
v 0.977201 0.000000 -0.589204
v 1.194188 0.000000 -0.588603
v 1.401002 0.000000 -0.542173
v 1.590203 0.000000 -0.447191
v 1.754354 0.000000 -0.300938
v 1.886017 0.000000 -0.100691
v 1.977753 0.000000 0.156271
v 2.022123 0.000000 0.472669
v 2.014005 0.000000 0.686373
v 1.969290 0.000000 0.910761
v 1.889823 0.000000 1.137921
v 1.777448 0.000000 1.359942
v 1.634009 0.000000 1.568913
v 1.461349 0.000000 1.756922
v 1.261314 0.000000 1.916057
v 1.035748 0.000000 2.038407
v 0.786493 0.000000 2.116060
v 0.515395 0.000000 2.141105
v 0.224298 0.000000 2.105630
v -0.084954 0.000000 2.001724
v -0.217280 0.000000 1.902973
v -0.252005 0.000000 1.776651
v -0.210807 0.000000 1.627316
v -0.115361 0.000000 1.459529
v 0.012657 0.000000 1.277848
v 0.151570 0.000000 1.086832
v 0.279703 0.000000 0.891039
v 0.375379 0.000000 0.695030
v 0.416923 0.000000 0.503362
v 0.382659 0.000000 0.320595
v 0.250909 0.000000 0.151288
v 0.000000 0.000000 0.000000
l 153 154
l 154 155
l 155 156
l 156 157
l 157 158
l 158 159
l 159 160
l 160 161
l 161 162
l 162 163
l 163 164
l 164 165
l 165 166
l 166 167
l 167 168
l 168 169
l 169 170
l 170 171
l 171 172
l 172 173
l 173 174
l 174 175
l 175 176
l 176 177
l 177 178
l 178 179
l 179 180
l 180 181
l 181 182
l 182 183
l 183 184
l 184 185
l 185 186
l 186 187
l 187 188
l 188 189
