<svg width="445px" height="3px" viewBox="0 0 445 3" version="1.1" xmlns="http://www.w3.org/2000/svg" xmlns:xlink="http://www.w3.org/1999/xlink">
    <g id="LVL-1-—-BORNE" stroke="none" stroke-width="1" fill="none" fill-rule="evenodd">
        <g id="Borne/P1_ErrorMessage" transform="translate(-143.000000, -259.000000)" fill="#2FF000">
            <g id="TERMINAL" transform="translate(68.000000, 44.000000)">
                <g id="Blocs/Chapeau" transform="translate(67.000000, 139.000000)">
                    <path d="M-8.15671642,27 L-34.6741294,79 L-36,79 L-9.48258706,27 L-8.15671642,27 Z M119.126866,27 L92.6094527,79 L91.2835821,79 L117.800995,27 L119.126866,27 Z M55.4850746,27 L28.9676617,79 L27.641791,79 L54.159204,27 L55.4850746,27 Z M182.768657,27 L156.251244,79 L154.925373,79 L181.442786,27 L182.768657,27 Z M23.6641791,27 L-2.85323383,79 L-4.17910448,79 L22.3383085,27 L23.6641791,27 Z M150.947761,27 L124.430348,79 L123.104478,79 L149.621891,27 L150.947761,27 Z M87.3059701,27 L60.7885572,79 L59.4626866,79 L85.9800995,27 L87.3059701,27 Z M214.589552,27 L188.072139,79 L186.746269,79 L213.263682,27 L214.589552,27 Z M7.75373134,27 L-18.7636816,79 L-20.0895522,79 L6.4278607,27 L7.75373134,27 Z M135.037313,27 L108.5199,79 L107.19403,79 L133.711443,27 L135.037313,27 Z M71.3955224,27 L44.8781095,79 L43.5522388,79 L70.0696517,27 L71.3955224,27 Z M198.679104,27 L172.161692,79 L170.835821,79 L197.353234,27 L198.679104,27 Z M39.5746269,27 L13.0572139,79 L11.7313433,79 L38.2487562,27 L39.5746269,27 Z M166.858209,27 L140.340796,79 L139.014925,79 L165.532338,27 L166.858209,27 Z M103.216418,27 L76.699005,79 L75.3731343,79 L101.890547,27 L103.216418,27 Z M230.5,27 L203.982587,79 L202.656716,79 L229.174129,27 L230.5,27 Z M-4.17910448,27 L-30.6965174,79 L-32.0223881,79 L-5.50497512,27 L-4.17910448,27 Z M123.104478,27 L96.5870647,79 L95.261194,79 L121.778607,27 L123.104478,27 Z M59.4626866,27 L32.9452736,79 L31.619403,79 L58.1368159,27 L59.4626866,27 Z M186.746269,27 L160.228856,79 L158.902985,79 L185.420398,27 L186.746269,27 Z M27.641791,27 L1.12437811,79 L-0.201492537,79 L26.3159204,27 L27.641791,27 Z M154.925373,27 L128.40796,79 L127.08209,79 L153.599502,27 L154.925373,27 Z M91.2835821,27 L64.7661692,79 L63.4402985,79 L89.9577114,27 L91.2835821,27 Z M218.567164,27 L192.049751,79 L190.723881,79 L217.241294,27 L218.567164,27 Z M11.7313433,27 L-14.7860697,79 L-16.1119403,79 L10.4054726,27 L11.7313433,27 Z M139.014925,27 L112.497512,79 L111.171642,79 L137.689055,27 L139.014925,27 Z M75.3731343,27 L48.8557214,79 L47.5298507,79 L74.0472637,27 L75.3731343,27 Z M202.656716,27 L176.139303,79 L174.813433,79 L201.330846,27 L202.656716,27 Z M43.5522388,27 L17.0348259,79 L15.7089552,79 L42.2263682,27 L43.5522388,27 Z M170.835821,27 L144.318408,79 L142.992537,79 L169.50995,27 L170.835821,27 Z M107.19403,27 L80.6766169,79 L79.3507463,79 L105.868159,27 L107.19403,27 Z M234.477612,27 L207.960199,79 L206.634328,79 L233.151741,27 L234.477612,27 Z M-0.201492537,27 L-26.7189055,79 L-28.0447761,79 L-1.52736318,27 L-0.201492537,27 Z M127.08209,27 L100.564677,79 L99.238806,79 L125.756219,27 L127.08209,27 Z M63.4402985,27 L36.9228856,79 L35.5970149,79 L62.1144279,27 L63.4402985,27 Z M190.723881,27 L164.206468,79 L162.880597,79 L189.39801,27 L190.723881,27 Z M31.619403,27 L5.10199005,79 L3.7761194,79 L30.2935323,27 L31.619403,27 Z M158.902985,27 L132.385572,79 L131.059701,79 L157.577114,27 L158.902985,27 Z M95.261194,27 L68.7437811,79 L67.4179104,79 L93.9353234,27 L95.261194,27 Z M222.544776,27 L196.027363,79 L194.701493,79 L221.218905,27 L222.544776,27 Z M15.7089552,27 L-10.8084577,79 L-12.1343284,79 L14.3830846,27 L15.7089552,27 Z M142.992537,27 L116.475124,79 L115.149254,79 L141.666667,27 L142.992537,27 Z M79.3507463,27 L52.8333333,79 L51.5074627,79 L78.0248756,27 L79.3507463,27 Z M206.634328,27 L180.116915,79 L178.791045,79 L205.308458,27 L206.634328,27 Z M47.5298507,27 L21.0124378,79 L19.6865672,79 L46.2039801,27 L47.5298507,27 Z M174.813433,27 L148.29602,79 L146.970149,79 L173.487562,27 L174.813433,27 Z M111.171642,27 L84.6542289,79 L83.3283582,79 L109.845771,27 L111.171642,27 Z M238.455224,27 L211.937811,79 L210.61194,79 L237.129353,27 L238.455224,27 Z M3.7761194,27 L-22.7412935,79 L-24.0671642,79 L2.45024876,27 L3.7761194,27 Z M131.059701,27 L104.542289,79 L103.216418,79 L129.733831,27 L131.059701,27 Z M67.4179104,27 L40.9004975,79 L39.5746269,79 L66.0920398,27 L67.4179104,27 Z M194.701493,27 L168.18408,79 L166.858209,79 L193.375622,27 L194.701493,27 Z M35.5970149,27 L9.07960199,79 L7.75373134,79 L34.2711443,27 L35.5970149,27 Z M162.880597,27 L136.363184,79 L135.037313,79 L161.554726,27 L162.880597,27 Z M99.238806,27 L72.721393,79 L71.3955224,79 L97.9129353,27 L99.238806,27 Z M226.522388,27 L200.004975,79 L198.679104,79 L225.196517,27 L226.522388,27 Z M19.6865672,27 L-6.83084577,79 L-8.15671642,79 L18.3606965,27 L19.6865672,27 Z M146.970149,27 L120.452736,79 L119.126866,79 L145.644279,27 L146.970149,27 Z M83.3283582,27 L56.8109453,79 L55.4850746,79 L82.0024876,27 L83.3283582,27 Z M210.61194,27 L184.094527,79 L182.768657,79 L209.28607,27 L210.61194,27 Z M51.5074627,27 L24.9900498,79 L23.6641791,79 L50.181592,27 L51.5074627,27 Z M178.791045,27 L152.273632,79 L150.947761,79 L177.465174,27 L178.791045,27 Z M115.149254,27 L88.6318408,79 L87.3059701,79 L113.823383,27 L115.149254,27 Z M242.432836,27 L215.915423,79 L214.589552,79 L241.106965,27 L242.432836,27 Z M246.410448,27 L219.893035,79 L218.567164,79 L245.084577,27 L246.410448,27 Z M373.69403,27 L347.176617,79 L345.850746,79 L372.368159,27 L373.69403,27 Z M310.052239,27 L283.534826,79 L282.208955,79 L308.726368,27 L310.052239,27 Z M437.335821,27 L410.818408,79 L409.492537,79 L436.00995,27 L437.335821,27 Z M278.231343,27 L251.71393,79 L250.38806,79 L276.905473,27 L278.231343,27 Z M405.514925,27 L378.997512,79 L377.671642,79 L404.189055,27 L405.514925,27 Z M341.873134,27 L315.355721,79 L314.029851,79 L340.547264,27 L341.873134,27 Z M469.156716,27 L442.639303,79 L441.313433,79 L467.830846,27 L469.156716,27 Z M262.320896,27 L235.803483,79 L234.477612,79 L260.995025,27 L262.320896,27 Z M389.604478,27 L363.087065,79 L361.761194,79 L388.278607,27 L389.604478,27 Z M325.962687,27 L299.445274,79 L298.119403,79 L324.636816,27 L325.962687,27 Z M453.246269,27 L426.728856,79 L425.402985,79 L451.920398,27 L453.246269,27 Z M294.141791,27 L267.624378,79 L266.298507,79 L292.81592,27 L294.141791,27 Z M421.425373,27 L394.90796,79 L393.58209,79 L420.099502,27 L421.425373,27 Z M357.783582,27 L331.266169,79 L329.940299,79 L356.457711,27 L357.783582,27 Z M485.067164,27 L458.549751,79 L457.223881,79 L483.741294,27 L485.067164,27 Z M250.38806,27 L223.870647,79 L222.544776,79 L249.062189,27 L250.38806,27 Z M377.671642,27 L351.154229,79 L349.828358,79 L376.345771,27 L377.671642,27 Z M314.029851,27 L287.512438,79 L286.186567,79 L312.70398,27 L314.029851,27 Z M441.313433,27 L414.79602,79 L413.470149,79 L439.987562,27 L441.313433,27 Z M282.208955,27 L255.691542,79 L254.365672,79 L280.883085,27 L282.208955,27 Z M409.492537,27 L382.975124,79 L381.649254,79 L408.166667,27 L409.492537,27 Z M345.850746,27 L319.333333,79 L318.007463,79 L344.524876,27 L345.850746,27 Z M473.134328,27 L446.616915,79 L445.291045,79 L471.808458,27 L473.134328,27 Z M266.298507,27 L239.781095,79 L238.455224,79 L264.972637,27 L266.298507,27 Z M393.58209,27 L367.064677,79 L365.738806,79 L392.256219,27 L393.58209,27 Z M329.940299,27 L303.422886,79 L302.097015,79 L328.614428,27 L329.940299,27 Z M457.223881,27 L430.706468,79 L429.380597,79 L455.89801,27 L457.223881,27 Z M298.119403,27 L271.60199,79 L270.276119,79 L296.793532,27 L298.119403,27 Z M425.402985,27 L398.885572,79 L397.559701,79 L424.077114,27 L425.402985,27 Z M361.761194,27 L335.243781,79 L333.91791,79 L360.435323,27 L361.761194,27 Z M489.044776,27 L462.527363,79 L461.201493,79 L487.718905,27 L489.044776,27 Z M254.365672,27 L227.848259,79 L226.522388,79 L253.039801,27 L254.365672,27 Z M381.649254,27 L355.131841,79 L353.80597,79 L380.323383,27 L381.649254,27 Z M318.007463,27 L291.49005,79 L290.164179,79 L316.681592,27 L318.007463,27 Z M445.291045,27 L418.773632,79 L417.447761,79 L443.965174,27 L445.291045,27 Z M286.186567,27 L259.669154,79 L258.343284,79 L284.860697,27 L286.186567,27 Z M413.470149,27 L386.952736,79 L385.626866,79 L412.144279,27 L413.470149,27 Z M349.828358,27 L323.310945,79 L321.985075,79 L348.502488,27 L349.828358,27 Z M477.11194,27 L450.594527,79 L449.268657,79 L475.78607,27 L477.11194,27 Z M270.276119,27 L243.758706,79 L242.432836,79 L268.950249,27 L270.276119,27 Z M397.559701,27 L371.042289,79 L369.716418,79 L396.233831,27 L397.559701,27 Z M333.91791,27 L307.400498,79 L306.074627,79 L332.59204,27 L333.91791,27 Z M461.201493,27 L434.68408,79 L433.358209,79 L459.875622,27 L461.201493,27 Z M302.097015,27 L275.579602,79 L274.253731,79 L300.771144,27 L302.097015,27 Z M429.380597,27 L402.863184,79 L401.537313,79 L428.054726,27 L429.380597,27 Z M365.738806,27 L339.221393,79 L337.895522,79 L364.412935,27 L365.738806,27 Z M493.022388,27 L466.504975,79 L465.179104,79 L491.696517,27 L493.022388,27 Z M258.343284,27 L231.825871,79 L230.5,79 L257.017413,27 L258.343284,27 Z M385.626866,27 L359.109453,79 L357.783582,79 L384.300995,27 L385.626866,27 Z M321.985075,27 L295.467662,79 L294.141791,79 L320.659204,27 L321.985075,27 Z M449.268657,27 L422.751244,79 L421.425373,79 L447.942786,27 L449.268657,27 Z M290.164179,27 L263.646766,79 L262.320896,79 L288.838308,27 L290.164179,27 Z M417.447761,27 L390.930348,79 L389.604478,79 L416.121891,27 L417.447761,27 Z M353.80597,27 L327.288557,79 L325.962687,79 L352.4801,27 L353.80597,27 Z M481.089552,27 L454.572139,79 L453.246269,79 L479.763682,27 L481.089552,27 Z M274.253731,27 L247.736318,79 L246.410448,79 L272.927861,27 L274.253731,27 Z M401.537313,27 L375.0199,79 L373.69403,79 L400.211443,27 L401.537313,27 Z M337.895522,27 L311.378109,79 L310.052239,79 L336.569652,27 L337.895522,27 Z M465.179104,27 L438.661692,79 L437.335821,79 L463.853234,27 L465.179104,27 Z M306.074627,27 L279.557214,79 L278.231343,79 L304.748756,27 L306.074627,27 Z M433.358209,27 L406.840796,79 L405.514925,79 L432.032338,27 L433.358209,27 Z M369.716418,27 L343.199005,79 L341.873134,79 L368.390547,27 L369.716418,27 Z M497,27 L470.482587,79 L469.156716,79 L495.674129,27 L497,27 Z" id="Combined-Shape"></path>
                </g>
            </g>
        </g>
    </g>
</svg>