<?xml version="1.0" encoding="UTF-8"?>
<svg width="16px" height="16px" viewBox="0 0 16 16" version="1.1" xmlns="http://www.w3.org/2000/svg" xmlns:xlink="http://www.w3.org/1999/xlink">
    <!-- Generator: sketchtool 64 (101010) - https://sketch.com -->
    <title>86F816BC-D940-4FBF-BDCD-19C24F525F57</title>
    <desc>Created with sketchtool.</desc>
    <g id="LVL-1-—-BORNE" stroke="none" stroke-width="1" fill="none" fill-rule="evenodd">
        <g id="Borne/-P3" transform="translate(-135.000000, -213.000000)" fill="#2FF000">
            <g id="TERMINAL" transform="translate(68.000000, 44.000000)">
                <g id="Blocs/Chapeau" transform="translate(67.000000, 139.000000)">
                    <g id="icon/info" transform="translate(0.000000, 30.000000)">
                        <path d="M7.83509993,0 C12.1618162,0 15.6701999,3.50838364 15.6701999,7.83509993 C15.6701999,12.1618162 12.1618162,15.6701999 7.83509993,15.6701999 C3.50838364,15.6701999 -2.66453526e-14,12.1618162 -2.66453526e-14,7.83509993 C-2.66453526e-14,3.50838364 3.50838364,0 7.83509993,0 Z M7.83509993,1.56701999 C4.3789503,1.56701999 1.56701999,4.3789503 1.56701999,7.83509993 C1.56701999,11.2912496 4.3789503,14.1031799 7.83509993,14.1031799 C11.2912496,14.1031799 14.1031799,11.2912496 14.1031799,7.83509993 C14.1031799,4.3789503 11.2912496,1.56701999 7.83509993,1.56701999 Z M8.61860992,7.05158994 L8.61860992,10.1856299 L10.1856299,10.1856299 L10.1856299,11.7526499 L5.48456995,11.7526499 L5.48456995,10.1856299 L7.05158994,10.1856299 L7.05158994,8.61860992 L5.48456995,8.61860992 L5.48456995,7.05158994 L8.61860992,7.05158994 Z M7.83509993,3.13403997 C8.70054117,3.13403997 9.40211992,3.83561872 9.40211992,4.70105996 C9.40211992,5.5665012 8.70054117,6.26807995 7.83509993,6.26807995 C6.96965869,6.26807995 6.26807995,5.5665012 6.26807995,4.70105996 C6.26807995,3.83561872 6.96965869,3.13403997 7.83509993,3.13403997 Z" id="Shape"></path>
                    </g>
                </g>
            </g>
        </g>
    </g>
</svg>